<svg width="70" height="70" viewBox="0 0 70 70" fill="none" xmlns="http://www.w3.org/2000/svg">
<path d="M53.3606 20.752C54.4962 19.6164 54.4962 17.7751 53.3606 16.6395V16.6395C52.2249 15.5039 50.3837 15.5039 49.2481 16.6395L37.1215 28.7661C35.9499 29.9377 34.0504 29.9377 32.8788 28.7661L20.7522 16.6395C19.6166 15.5039 17.7754 15.5039 16.6397 16.6395V16.6395C15.5041 17.7751 15.5041 19.6164 16.6397 20.752L28.7663 32.8786C29.9379 34.0502 29.9379 35.9497 28.7663 37.1212L16.6397 49.2478C15.5041 50.3835 15.5041 52.2247 16.6397 53.3603V53.3603C17.7754 54.496 19.6166 54.496 20.7522 53.3603L32.8788 41.2337C34.0504 40.0622 35.9499 40.0622 37.1215 41.2337L49.2481 53.3603C50.3837 54.496 52.2249 54.496 53.3606 53.3603V53.3603C54.4962 52.2247 54.4962 50.3835 53.3606 49.2478L41.234 37.1212C40.0624 35.9497 40.0624 34.0502 41.234 32.8786L53.3606 20.752Z" fill="#945DB9"/>
</svg>
