<svg width="64" height="60" viewBox="0 0 64 60" fill="none" xmlns="http://www.w3.org/2000/svg">
<g clip-path="url(#clip0_748_883)">
<g filter="url(#filter0_d_748_883)">
<path d="M10.375 45.4583C10.375 47.0001 11.6249 48.25 13.1667 48.25H57.8333C59.3751 48.25 60.625 47.0001 60.625 45.4583V45.4583C60.625 43.9165 59.3751 42.6667 57.8333 42.6667H13.1667C11.6249 42.6667 10.375 43.9165 10.375 45.4583V45.4583ZM10.375 31.5C10.375 33.0418 11.6249 34.2917 13.1667 34.2917H57.8333C59.3751 34.2917 60.625 33.0418 60.625 31.5V31.5C60.625 29.9582 59.3751 28.7083 57.8333 28.7083H13.1667C11.6249 28.7083 10.375 29.9582 10.375 31.5V31.5ZM13.1667 14.75C11.6249 14.75 10.375 15.9999 10.375 17.5417V17.5417C10.375 19.0835 11.6249 20.3333 13.1667 20.3333H57.8333C59.3751 20.3333 60.625 19.0835 60.625 17.5417V17.5417C60.625 15.9999 59.3751 14.75 57.8333 14.75H13.1667Z" fill="#9D63C6"/>
</g>
</g>
<defs>
<filter id="filter0_d_748_883" x="6.375" y="14.75" width="58.25" height="41.5" filterUnits="userSpaceOnUse" color-interpolation-filters="sRGB">
<feFlood flood-opacity="0" result="BackgroundImageFix"/>
<feColorMatrix in="SourceAlpha" type="matrix" values="0 0 0 0 0 0 0 0 0 0 0 0 0 0 0 0 0 0 127 0" result="hardAlpha"/>
<feOffset dy="4"/>
<feGaussianBlur stdDeviation="2"/>
<feComposite in2="hardAlpha" operator="out"/>
<feColorMatrix type="matrix" values="0 0 0 0 0 0 0 0 0 0 0 0 0 0 0 0 0 0 0.25 0"/>
<feBlend mode="normal" in2="BackgroundImageFix" result="effect1_dropShadow_748_883"/>
<feBlend mode="normal" in="SourceGraphic" in2="effect1_dropShadow_748_883" result="shape"/>
</filter>
<clipPath id="clip0_748_883">
<rect width="74" height="74" fill="white" transform="translate(-10 -14)"/>
</clipPath>
</defs>
</svg>
