<svg xmlns="http://www.w3.org/2000/svg" viewBox="0 0 2891.66 2047.19"><defs><style>.cls-1{isolation:isolate;}.cls-2{mix-blend-mode:overlay;}.cls-3{fill:#AAAAAA;}</style></defs><g class="cls-1"><g id="Ondes"><g class="cls-2"><path class="cls-3" d="M29.21,731.07c69,103.07,178,176.33,298.55,204.6,61.53,14.44,124.27,15.87,186.66,6.5,76.51-11.48,152.39-35.28,230.44-32.35C967.44,918.16,1035.43,1171.51,1166,1308c30.71,32.12,66.55,59.7,108.09,76.2,65.86,26.16,136.59,16.65,205.58,21.42,101.82,7,183.49,62.19,250.39,136.12,65.26,72.13,116.75,155.25,175.67,232.36,53.75,70.35,115.71,139.95,198,177,110.83,49.86,234.72,23.07,332.12-44.17,113.91-78.64,181.4-203.6,233.87-328.25,13.72-32.59,26.61-65.52,39.43-98.47.29-.75-.92-1.07-1.21-.33-51.7,132.87-106.44,273-210.48,374.67-92.31,90.15-227.37,148.3-356,109.39-88.87-26.89-157.17-93.56-214.08-164.15-59.28-73.56-109.24-154.14-169.2-227.18-54.91-66.89-120.8-129.32-205.36-155.22-64.29-19.69-131.12-11.19-197.13-16.48-55.72-4.47-106.4-23.62-150.23-58.32-75.36-59.67-123.4-147.06-175.72-225.9C981,1043.18,924.94,966.05,841.46,929.79c-131.65-57.18-271.34,17.9-406,17.43-127.29-.44-253.26-53.55-343.88-142.67a472.88,472.88,0,0,1-61.26-74.11c-.44-.66-1.53,0-1.08.63Z"/><path class="cls-3" d="M65,719.08a513.3,513.3,0,0,0,238.88,193.8c47.41,18.7,97.73,30.2,148.67,32.87,61.28,3.22,121.69-8.42,182.18-16.28,65.06-8.46,132-11.68,194.33,12.3,54.43,20.93,99.7,59.48,138.21,102.47,65.77,73.41,114.2,160.65,181.54,232.75,31.31,33.52,67.2,63.42,109.12,82.72,54.39,25,112.37,25.92,171.14,26,60.14.1,118,5.31,172.94,31.53,44.16,21.07,82.93,51.81,117.46,86.2,74.69,74.41,131.41,164.36,196.24,247,63.74,81.21,139.69,161.3,242.8,188.69,117.23,31.14,239.79-16.6,327.8-94.62,89-78.87,144.86-188,191.49-295.51,11.18-25.76,21.9-51.72,32.57-77.7.31-.74-.9-1.07-1.2-.33-45.6,111-93.13,224.42-170.69,317.56-78.76,94.57-197.46,166.85-324.22,158.53-115.21-7.56-204.37-84.39-275-169.38-66-79.48-121.12-167.63-190.16-244.69-63.09-70.41-140.62-130.51-236.66-144.23-63.11-9-127.5,1.22-190.38-10.13-51.21-9.25-97.3-34-136.48-67.79-146.08-125.9-214.86-369.52-435.07-387.89-63.17-5.27-126,7.2-188.34,15.4-57,7.5-113.46,9.57-170.21-1.16-105.3-19.91-203.31-75.8-275.79-154.5a504.09,504.09,0,0,1-50.1-64.23c-.44-.66-1.53,0-1.08.64Z"/><path class="cls-3" d="M100.78,707.08c56,86.21,136.37,156.41,230.54,198.13,44,19.47,90.75,32.69,138.6,37.87,58.92,6.37,117.86-1.66,176.64-5.69,66.17-4.53,133.19-2.54,194.63,25.14,50.47,22.74,93.42,59.1,131.34,98.88,67.06,70.35,119.5,154.18,192.06,219.37,32.86,29.53,70.1,54.39,111.92,69.22,57.24,20.29,117.12,16.8,176.83,17.36,57.42.54,112.22,9.68,163.78,35.78,43.36,21.95,81.59,52.74,116,86.86,73.25,72.71,130.4,159.46,195.08,239.44,63.75,78.83,139.26,155.68,240.59,181.73,113.1,29.08,231.45-14.7,317.62-88.75,87.06-74.8,143.46-179.23,190.71-282.05,11.85-25.8,23.22-51.82,34.5-77.88.31-.73-.76-1.36-1.08-.63-45.32,104.7-92.69,211.15-166.33,299.51-76.77,92.1-189.72,162-313.09,157.56-114.42-4.1-204.61-76.54-276.32-159.54-67-77.49-122.93-163.87-191.76-239.82-61.28-67.61-135.23-127.39-226.66-146.12-59.24-12.13-119.81-4.41-179.67-8.65-54.09-3.83-104.68-21.21-149.43-51.83-78.64-53.79-133-135.31-193.53-207.17-68.12-80.86-148.4-153.84-257.3-168.32-59.93-8-120.28-.16-180.16,4.25-55.06,4-109.23,3.19-163.12-9.88-100.91-24.47-192.73-82.7-261.54-160a544.62,544.62,0,0,1-49.73-65.41c-.43-.67-1.52,0-1.08.64Z"/><path class="cls-3" d="M136.57,695.08C191.22,780.55,267.67,852.53,358.72,898c42.13,21,87.31,36.23,133.88,43.49,55,8.56,110.73,4.56,166.08,4.45,63.81-.13,127.59,6.26,185.94,33.93,49.88,23.66,93.25,59.23,132.55,97.58,68.06,66.41,124.8,145.28,201.21,202.83,36.79,27.7,78.07,49,123,59.8,58.37,14.06,118.54,7.14,177.9,9.26,54.51,1.94,106.52,14.8,154.66,40.69,42.55,22.88,80.25,53.78,114.48,87.68,72.28,71.61,130,156,195.06,233.82,64.79,77.44,141.91,151.67,243.8,173.92,109.64,23.94,223.07-18.6,305.89-90.46,82.37-71.47,137.61-169.16,184.55-266.11,12.07-24.93,23.66-50.08,35.15-75.27.33-.73-.75-1.36-1.08-.63-45.6,99.94-93.29,201.4-165.07,285.67-75,88-181.94,154-300.66,152.29-113.54-1.61-204.39-70.42-277-151.66-66.7-74.63-122.84-158-190.47-231.9-60.94-66.55-133.33-126.76-222.62-149.16-55.85-14-113.11-9.46-170.07-10.25-55.6-.77-108.77-11-158.08-37.34-84-45-144.24-122.26-207.9-190.87-70.62-76.1-150.74-147.42-256-167.16-56.49-10.6-114.08-7.6-171.22-7-53.88.58-106.71-3.12-158.51-18.81-97-29.37-183.2-90.41-248.57-167.22a593.71,593.71,0,0,1-48-65.1c-.44-.67-1.52-.05-1.08.64Z"/><path class="cls-3" d="M172.35,683.08c52.68,83.74,124,156.68,210.2,206,40.19,23,83.6,40.72,128.87,50.7,50.75,11.2,103,11.52,154.63,14.93,61.67,4.08,122.72,13.7,178.81,40.93,49.42,24,93.34,58.26,134.14,94.71,70,62.55,131.73,136.54,212.07,186.62,41.12,25.63,86.78,43.45,134.86,50.31,58.43,8.34,117.59.25,176.26,4.39,101.77,7.18,187.66,60.95,259.19,130.71,71.68,69.92,129.74,151.89,194.85,227.62,64.89,75.47,142.05,147.45,242.71,168.16,106,21.81,215-17.35,295.92-86s136.42-162.48,184-255.91c12.07-23.7,23.7-47.62,35.23-71.6.35-.72-.73-1.35-1.08-.63-89.81,186.82-217.83,421.9-457.38,419-111.29-1.35-201.1-66.94-273.55-145.72-67.44-73.35-124.45-155.6-192.8-228.2-60.39-64.16-131.2-122.43-217.46-146.75-53-14.95-107.43-13.26-162-12.55-57.06.73-112.59-4.17-165.66-26.51-87.77-37-153.72-108.47-221-173.31-73.56-71-153.92-139.1-255.84-162.91-53.91-12.59-109.3-13.77-164.31-17.19-50.06-3.11-98.94-10.07-146.21-27.39-93.53-34.27-174.79-98.37-237.24-175.25a658.38,658.38,0,0,1-46.24-64.79c-.43-.67-1.51-.05-1.08.64Z"/><path class="cls-3" d="M208.14,671.08C259.18,753.63,326,827.71,407.6,881c36.93,24.08,76.94,43.77,119.17,56.6,49,14.9,100.35,19.36,150.84,26.59,57.86,8.29,114.82,21.07,167.47,47.26,49.47,24.61,94.33,58.11,137,92.9,72.16,58.77,139.3,126.87,223.48,168.75a376.86,376.86,0,0,0,135.15,38.47c58.81,5.08,117.92-3.15,176.71,2.42,98.36,9.33,182.68,62.36,253.08,128.89,72,68.05,130.73,148.05,195.81,222.36,64.9,74.11,141.42,144.72,240.94,165.35,103.3,21.42,209.51-14.73,289.31-80.91,79.45-65.9,135.28-156,183.53-245.92,12.07-22.51,23.72-45.24,35.26-68,.36-.72-.71-1.35-1.08-.63-91.21,180.1-219.37,404.47-451.4,400.43-109.64-1.91-198.4-66.17-270.49-143.28-66.8-71.46-124-151.3-192.08-221.63-61.16-63.15-132.29-120.4-218-145.47-50.26-14.71-101.77-15.08-153.71-13.85-56.47,1.33-111.87.52-166.28-16.56-90.67-28.45-162.47-92-233.3-152.6C951,1075.33,869.4,1009,768.69,981c-97.8-27.22-201.54-22.21-295.24-65-88-40.18-162.81-106.78-221.33-183.09a753.13,753.13,0,0,1-42.9-62.42c-.43-.68-1.51-.05-1.08.64Z"/><path class="cls-3" d="M243.92,659.08C293.85,741.26,356.83,817,434.5,874.35c34.13,25.2,71.17,46.72,110.74,62.14,45.61,17.78,94,26.56,141.63,37.26,55.08,12.39,109.29,28,159.67,54,46.8,24.14,90.2,54.74,132.63,85.78,75.89,55.52,149.39,117.86,237.91,152.54a428.71,428.71,0,0,0,145.14,29.14c59.52,1.55,119.34-6.32,178.59,2.3,93.31,13.58,173.86,65.25,242,128.16,72.09,66.56,131.26,144.87,196.51,217.76s141.6,141.29,240.42,160.7c99.47,19.54,201-13.89,278.61-76.73s133.41-148.32,182-234.29c12.41-21.94,24.4-44.12,36.27-66.36.38-.71-.7-1.35-1.08-.64-92.07,172.6-219.89,386.58-443.45,382.35-108.13-2-196-64.39-267.93-139.88-66.71-70-124.14-148.23-192.5-216.79-61.12-61.3-131.47-116.66-215.15-142.85-102.82-32.18-210.5-2-314.66-24.55-93-20.14-170.86-74-245.83-130.05C954.31,1093.27,872.34,1029,774.44,996.09c-91.81-30.84-190.56-36.63-277-83.12-84.61-45.51-155-115.34-211.26-192.49-14.63-20.07-28.3-40.81-41.2-62-.42-.68-1.5-.05-1.08.64Z"/><path class="cls-3" d="M279.71,647.08c49.38,82.83,109.29,161.09,183.74,223,32,26.63,66.88,50.15,104.58,68,41.61,19.72,86.09,32.44,129.89,46.22,53.25,16.74,105.67,35.65,154.83,62.38,46.79,25.45,91.09,55.48,135.56,84.72,76.81,50.51,154.65,102.11,244,127.55,48.44,13.8,98.52,19.54,148.83,18.8,56.78-.84,113.86-7,170.33,2,93.32,14.72,174.53,66,243.7,128.26,71.8,64.64,131,140.81,195.82,212,65.13,71.59,141.16,138.66,239,157.7,96.29,18.74,194.18-12.26,270.11-72.22s131.89-141.36,180.95-223.69c12.6-21.14,24.79-42.53,36.85-64a.63.63,0,0,0-1.08-.63c-92.91,165.37-220.76,369.87-436.52,364.73-106.19-2.53-193-63.28-264.32-137-66.64-68.87-124.32-145.75-193.11-212.68-61.48-59.81-131.82-113.54-214.37-140.17-46.58-15-94.5-19.25-143.25-18.3-54.1,1.06-107.83,5.57-161.75-1.43-94.68-12.29-178.6-54.71-258.22-105.35-85.79-54.56-168.13-116.76-263.15-154.73-87.9-35.12-183-51.47-263.63-103.22C439.26,858.2,374.45,786.22,321.11,709.3c-14.19-20.47-27.57-41.47-40.32-62.86a.63.63,0,0,0-1.08.64Z"/><path class="cls-3" d="M315.49,635.08C364.24,718.43,420.61,799,491,865.68c30.16,28.57,63,54.51,99.11,75.24,39.54,22.73,82.1,39.6,124.19,56.9,50.45,20.73,100.22,42.63,147.65,69.69,45.65,26,90,54.34,135.51,80.59,78.93,45.52,161,85.67,251.31,102.37,49.91,9.23,100.38,11.25,151,9.1,55.33-2.35,110.9-6.81,165.82,2.93,90.54,16.07,170.33,65,238.92,124.51,72.14,62.61,131.56,137,195.93,207.09,63.94,69.66,137.7,135.35,232.67,156.18,94.46,20.72,190.95-7.28,267-65,75.11-57,131.56-135,181.29-214.07,12.94-20.59,25.47-41.44,37.85-62.36a.63.63,0,0,0-1.08-.64c-94.66,160-225.29,358.42-436.75,347.32-102.81-5.39-186.72-65.61-256.14-137-65.56-67.4-122.91-142.15-191.47-206.76-61.88-58.31-132.29-110.13-213.82-136.91-44.37-14.57-90.25-20.18-136.85-19.81-53.72.42-107.24,6.39-161,3-94.61-5.93-182.74-35.44-266.32-79.2-90.24-47.23-173.51-107.18-266-150-82.59-38.22-171.46-64.56-245.2-119.54C468.71,852.84,408,777.29,356.35,698.74c-13.86-21.06-27.05-42.54-39.78-64.3a.63.63,0,0,0-1.08.64Z"/><path class="cls-3" d="M351.28,623.08C399.4,707,452,789.87,517.53,861.45c28.12,30.69,58.83,59.15,93,83,37.55,26.3,78.37,47.49,119.13,68.28,47.41,24.18,94.66,48.41,140.61,75.29,44.82,26.22,89.47,52.54,136.12,75.41,79.7,39.07,163.66,66.78,252.2,76,51.65,5.39,103.25,4.74,155,1.66,54.15-3.23,108.48-6.43,162.17,3.46,89.39,16.45,169.17,63.34,238.18,121,71.94,60.15,131.16,132.17,194.44,200.88,63,68.39,134.73,133.62,227.39,156.55,92.09,22.79,186.85-1.95,262.82-56.69,75.06-54.08,132.38-129.29,183-205.71,13.28-20,26.14-40.33,38.85-60.73.43-.68-.65-1.31-1.08-.63-96.33,154.58-230,347.53-437.25,330.14-100.22-8.41-181.42-68.89-249.26-138.77-64.7-66.63-122-139.8-191-202.32-62-56.15-132.28-105.25-212.4-131.37-43.25-14.1-88.08-20.4-133.51-20.46-53.14-.08-106,6.53-159.2,6-91.62-1-181-17.18-266.08-51.53-95.65-38.61-180.9-96.23-271.82-144.08-81.12-42.68-166.43-79.54-235.33-141.44C493.93,842.93,439,765.05,390,685.85q-19.39-31.36-37.66-63.41a.62.62,0,0,0-1.07.64Z"/><path class="cls-3" d="M387.06,611.08c48,85.56,97,171.66,158.08,248.77,26.61,33.6,55.78,65.18,88.72,92.67,34.33,28.65,71.86,53.18,110,76.44,43.59,26.61,87.86,52.16,131.86,78.1,43,25.37,86.92,49,133.2,68,83.89,34.43,172.27,50.75,262.74,52.94,51.24,1.24,102.2-1.68,153.28-5.35,52.49-3.76,105.16-6,157.23,3.32,89.12,16,169.75,60.67,239.82,116.76,72.38,57.94,131.69,128.22,194.22,196.11C2078,1606,2147.66,1671.05,2237.82,1696c91.31,25.32,185.55,2.84,262.32-50.54,73.77-51.31,131.17-123,182.2-196,13.46-19.26,26.51-38.79,39.4-58.43.45-.68-.64-1.31-1.08-.64-97.58,148.66-233.33,335-435.17,313.53-98.78-10.53-178.25-72-245.1-141.17-63.75-66-120.88-137.7-190.31-198.12-62.51-54.41-133.3-101.13-212.82-126.29A444.47,444.47,0,0,0,1506.39,1218c-52.57-.42-104.81,6.34-157.28,8.17-91.81,3.2-183.89-2-272.37-28.36C980.39,1169.1,896,1117.17,809.9,1066.74c-78.65-46.09-158.53-92.22-221.78-159C522.93,839,472.53,757,425.14,675.43q-18.78-32.34-37-65c-.39-.71-1.47-.08-1.08.63Z"/><path class="cls-3" d="M422.84,599.08C471,686.87,516.19,777,572.44,860c23.91,35.32,50.14,69.1,80.21,99.41,30.38,30.61,64,57.81,99,83,40.9,29.4,83.58,56.58,127,82.17,42,24.8,85.75,46.28,132.1,61.75,86.28,28.81,176.46,33.6,266.72,29.49,51.53-2.35,102.83-7.16,154.23-11.41,52.33-4.33,104.87-6.13,156.83,2.86,86.51,15,166.12,55.54,235.86,107.93,74.21,55.76,134.5,124.88,196.86,193,61,66.66,128.57,132.53,216.77,160.55s180.8,9.8,257.57-39.77c75.23-48.58,134.4-118.61,187.06-190,13.79-18.71,27.18-37.71,40.39-56.82.46-.66-.62-1.29-1.07-.63-100.62,145.48-242.84,329.53-443.78,295.71-94.31-15.87-169.09-78-233.12-145.27-62.47-65.6-119.53-135.64-189.55-193.69-63.24-52.42-134.79-96.23-213.93-119.76a464.4,464.4,0,0,0-129.41-19c-52-.35-103.59,6.36-155.34,10.2-91.53,6.79-184.5,12.14-275.15-5.8-98.67-19.52-184.72-67.37-268.44-121.24C737.78,1034,665.72,979.71,609.67,909c-59.43-75-104.42-160.66-149.83-244.5q-17.91-33-35.92-66c-.38-.71-1.46-.08-1.08.63Z"/><path class="cls-3" d="M458.63,587.08c47.94,89.35,88.27,182.7,138.18,271,43.73,77.37,97.89,145,166.66,201.63,72.7,59.84,155.94,113.35,247.74,137.53,89.81,23.66,182.32,16.88,273.49,6.27,100.83-11.73,205.18-31.64,306.54-15.63,86.5,13.66,167.27,51.42,238.31,101.87,75.36,53.52,136.14,121.2,198,189.16,59.81,65.72,125,131.95,210.46,162.62,85.87,30.81,177.32,16.36,254.55-30.21,77-46.42,138.13-115.49,192.64-185.91,13.31-17.21,26.29-34.68,39.11-52.26.47-.65-.61-1.28-1.08-.63-103.13,141.49-250.28,321.36-448.47,278.28-91.42-19.87-162.92-83.43-225.11-149.76-60.76-64.81-117.29-132.82-187.29-188.22-64.34-50.93-137.08-92.33-216.49-114.34a488.62,488.62,0,0,0-128-17.66c-52.13-.28-103.92,6.5-155.62,12.32-91.53,10.31-184,25.71-276.3,16.31a480.52,480.52,0,0,1-142.76-37.07c-44.29-19.25-85.59-45.12-125-72.79-74.38-52.15-140-115-189.64-191.44C576.6,828.27,538,740.48,495.43,655.51Q478,620.74,459.71,586.45c-.38-.71-1.46-.08-1.08.63Z"/><path class="cls-3" d="M494.41,575.08c46.63,89,81.11,183.39,122.78,274.67,36.83,80.7,82.25,155.35,146.2,217.55,66.4,64.58,148.31,119.26,239.77,139.26,91.7,20.06,184.65,3.68,275.43-13.14,98.55-18.27,200.82-38.19,301.35-26.72,88.6,10.11,172.9,44.06,247.35,92.55,76.76,50,138.66,115,199.54,182.68,59.91,66.59,123.14,136,207.57,171.17s176.15,24.88,255-19.35c77.92-43.69,140.59-110.83,196.53-179.36,13.48-16.51,26.61-33.28,39.6-50.18.49-.64-.6-1.26-1.08-.63-105.38,137.15-256.7,312.07-451.32,261.32-90.65-23.63-160.18-90.62-221.73-157.69-59.7-65.06-116.73-131.53-188.09-184.4-66.77-49.46-142.39-87.82-223.53-106.92-92-21.66-184.92-12.63-277.32,1.56-93.86,14.42-187.4,40.19-283.08,37.13-50.18-1.6-99.94-11.86-146.15-31.68-44.26-19-85.22-45.82-122.79-75.79C740.59,1051.35,685,981.5,644,902.26,600.3,817.9,568.35,728.06,528.6,641.88q-15.74-34.12-33.11-67.43c-.37-.72-1.45-.09-1.08.63Z"/><path class="cls-3" d="M530.2,563.08c45.57,89.19,74.1,185.11,107.92,279,29.5,81.92,65.45,160.72,122.21,227.64,58.39,68.85,136.16,126.43,225.72,145.38,93.63,19.81,187.44-4.37,277.93-27.88,98.7-25.65,200.16-48.31,302.83-41.07,88.84,6.27,175,35,251.94,79.51,79.68,46.15,144.36,108.66,205.3,176.89,60.1,67.31,121,139.78,203.47,180.33,81.09,39.85,172.23,36.36,252.57-3.57s145.67-105.59,203.75-172.56c14.62-16.86,28.85-34,42.89-51.37.5-.62-.38-1.51-.89-.88-108.78,134.25-266.88,305.82-459.51,242.89-88.58-28.94-155-99.24-215.56-166.76-59-65.77-117.21-130.59-190.78-180.53-69.71-47.32-148.46-81.81-231.46-97.28-92.08-17.16-186.16-7.74-277.12,11.71-94.51,20.22-187.49,55.21-285.09,56.79-50.07.8-100-8.37-145.79-28.79-42.66-19-81.54-46.59-115.77-78.2C738.09,1052.8,691.54,975.1,658.08,891.41c-34.52-86.34-59.52-176.17-95.66-261.9Q548,595.43,531.28,562.45c-.37-.72-1.45-.09-1.08.63Z"/><path class="cls-3" d="M566,551.08c83.84,168.44,85.71,370,197,525.69,50.68,70.88,122.34,130.48,209.25,148.68,92.78,19.43,185.15-10.29,272.36-39.69,46.31-15.62,92.59-31.6,140.35-42.25,52-11.6,105.35-18,158.7-17.26,91.24,1.32,181.58,24.54,263,65.46,82.5,41.44,150.86,100.46,212.21,168.79,61,67.94,119.19,143.38,199.29,190.07,36.57,21.32,77.29,35.13,119.64,38.17,45.41,3.25,90.63-6.32,132.28-24.23,83.42-35.87,152.11-100.87,212.73-166.9,15.38-16.75,30.35-33.86,45.13-51.14.52-.61-.36-1.5-.88-.89-113.07,132.24-279.49,301-470.55,222.64-87.21-35.78-150.58-110.94-211.33-179.93-30.52-34.66-61.17-69.44-95.55-100.37a650.56,650.56,0,0,0-100.75-74.43c-71.87-43-152.25-72-235.34-83.26-95.7-12.92-192.85-.71-285,26.82-91.13,27.23-180.92,68.44-277.19,73.08-49.06,2.36-98.15-6.25-142.61-27.42C867.46,1183,830.9,1154,800,1120.35c-61.37-66.61-98.82-149.27-125-235.07-27.71-90.94-46.26-184.65-80.81-273.45Q582,580.54,567.06,550.45c-.36-.72-1.43-.09-1.08.63Z"/><path class="cls-3" d="M601.77,539.08c87.48,180.6,63.69,398,179.46,567.35,46.65,68.22,114.13,122.12,197.8,133.7,101.7,14.08,199.53-32.77,290.94-70.53,45.63-18.85,91.75-36.73,140-47.57a606.23,606.23,0,0,1,141.22-14.45,641.21,641.21,0,0,1,271.78,65,605,605,0,0,1,116.89,74.74c34.32,28.06,64.67,60.39,93.93,93.59,55.57,63.06,108.37,132.14,179.28,179,72.29,47.79,158.54,59.7,240.74,31.4,88.6-30.5,162.25-95.51,226.64-161.51,16.64-17,32.83-34.54,48.79-52.23.54-.59-.34-1.48-.88-.88C2611.18,1466.5,2437,1631.29,2248.84,1539c-76.93-37.74-133.62-106.13-188.62-169.71-28.21-32.62-56.49-65.36-87.83-95.06a591.38,591.38,0,0,0-103.23-78.09c-152.45-91.19-344-115.82-513.34-60.47-97,31.72-187.87,85.59-289.7,101.63-49,7.71-99.47,4.64-145.75-13.93-39.78-16-74.59-42.25-103.43-73.72C680.07,1000.33,692.21,787.32,630.52,606.09a596,596,0,0,0-27.67-67.64c-.35-.73-1.43-.1-1.08.63Z"/><path class="cls-3" d="M602,535.56C685.12,710.88,678.81,921,797.85,1080.21c49.82,66.66,118.95,117.73,202.54,130.59,99,15.23,194.72-23,286.64-54.43,45.15-15.43,90.67-29.51,137.87-37.08a639.23,639.23,0,0,1,134.84-7c90.91,4.81,181,28.46,262.2,69.79a596,596,0,0,1,112.64,74.24c32.56,27.32,61.73,58.42,90.5,89.62,54.18,58.78,108.38,122.18,179.92,160.44,76.38,40.85,165.25,40.42,246,12.71,85.41-29.31,160.14-83.74,228.92-141,16.81-14,33.35-28.3,49.8-42.72.6-.53-.28-1.41-.89-.88-68.57,60.11-139.93,119.46-222.25,160-81.2,39.94-176.49,59.07-263.86,27.45-77.69-28.12-136.74-90.1-191.51-149.4-56.79-61.51-112.71-122.35-184.54-166.74-145.35-89.81-328.79-118.9-494.56-76.92-97.08,24.58-188.77,71.93-289.31,82.26-48.32,5-97.72.07-143-18-39.62-15.82-74.87-41.05-104.72-71.35C697.58,982.23,693.19,778,631.1,603a722.15,722.15,0,0,0-28-68.05c-.34-.73-1.42-.1-1.08.63Z"/><path class="cls-3" d="M602.24,532c78.18,168.61,89.79,368.17,208.52,517.1,52.36,65.67,122.17,115.53,205.53,131.83,95.58,18.69,189.35-9.23,281-34,45.42-12.27,91-23.39,137.85-28.33a680.1,680.1,0,0,1,128.41-1.23c88,7.41,174.85,31.45,253.29,72.08a585.39,585.39,0,0,1,109.07,72.68c31.34,26.52,60,56,88.74,85.28,53.5,54.44,109.19,111.69,180.76,141.86,79,33.31,170.07,25,250-.61,84.34-27,161.06-73.12,234.5-121.69,16.78-11.09,33.44-22.36,50.11-33.61.66-.45,0-1.53-.63-1.08C2658,1380.58,2586,1429.07,2506.83,1464c-82.84,36.53-178.46,59.24-268.48,38.11-78.61-18.46-140.69-73.35-196.43-128.84-57.13-56.88-111.38-116.18-180.15-159.47-140-88.13-316.19-119.37-478.42-88.78-95.1,17.93-186.35,56.71-283.93,60.75-93,3.85-179.82-28.91-247.1-92.93-61.25-58.27-103.35-133.72-132-212.58-33.79-93-54.88-190.09-89.5-282.83q-12.51-33.51-27.5-66c-.34-.73-1.42-.1-1.08.63Z"/><path class="cls-3" d="M602.47,528.52c41.85,92.34,70,189.78,106,284.35,29.37,77,66.08,150.45,121.15,212.51,55.42,62.45,125.64,108.44,207.51,127.15,90,20.58,179.81,4,268.77-13.43,44.72-8.77,89.33-17,134.89-19.7a735.5,735.5,0,0,1,123.35,3.25c86.13,9.49,171.12,33.88,247.93,74.23a590.48,590.48,0,0,1,105.05,70.46c30.16,25.33,58.37,52.85,87.09,79.77,54,50.61,112.14,101.76,184.44,123.59,81.59,24.63,173.89,11.13,254.11-12.34,82.49-24.14,159.85-62.22,236.22-101,17.15-8.71,34.28-17.45,51.5-26,.72-.36.09-1.44-.63-1.08-153.46,76.32-315.73,168.74-493.78,148.85-80.12-8.95-146-56-204.38-108.4-57.81-51.94-111.09-109-177.21-150.81-136.26-86.11-307-118.11-466-96.72-89.63,12.06-177.16,39.85-268.39,38.13-92-1.74-178.83-34.58-248-95.26-61.11-53.63-106.87-122.93-139.44-197-39.59-90-66.17-185.07-102-276.56q-12.78-32.64-27.2-64.59c-.33-.73-1.41-.1-1.08.63Z"/><path class="cls-3" d="M602.7,525C674,686.11,719.79,868.17,845.64,997.9c58.15,59.94,128.65,103.56,209.24,126,83.61,23.32,168.45,19.2,253.71,9,41.94-5,83.65-10.77,125.94-11.91a809.43,809.43,0,0,1,120.75,5.85c84,10.38,167.06,33.68,242.67,72.1,71.46,36.31,129.49,89,190,140.56,55.77,47.59,116.51,93.54,189.83,108.76,41.38,8.59,85.22,7.83,127.14,4.41,44.28-3.6,88.11-11.73,131.16-22.63,82.77-20.95,162.16-52.36,242.08-82,17.49-6.48,35-12.82,52.7-18.83.76-.25.43-1.46-.33-1.2-161.84,55-320.65,131.45-495.82,125.06-41.22-1.51-80.49-9.22-118.08-26.53-34.71-16-66.29-38-96.1-61.71-59.51-47.39-113.11-102.31-178.15-142.47-134.34-83-300.79-113.9-457-99.79-84.12,7.6-167.21,24.06-252,15.07-89.17-9.46-174.08-43.6-243.4-100.61C827.35,985.63,777.94,919.84,741,848c-42.82-83.39-74.17-172.07-109.66-258.67q-13.38-32.64-27.6-64.92c-.32-.74-1.4-.1-1.08.63Z"/><path class="cls-3" d="M602.94,521.48C670.51,678,732.13,846.64,858.05,967a582.36,582.36,0,0,0,94.87,73.92c36.4,22.6,75.41,39.19,115.44,54.18,76.35,28.58,155.45,47.59,237.4,38.86,40-4.26,78.59-15.91,118.77-19.12s80.89-1.22,120.85,4.56c81.89,11.83,161.64,39.37,234.85,77.64,69.68,36.42,128.89,85.93,191,133.49,57.57,44.11,120.51,84.11,194,93.33,44.67,5.61,91.08,3.3,135.77-1,44.18-4.24,88-11.67,131.38-20.94,82.7-17.67,163.55-42.57,245.63-62.74,17.7-4.34,35.48-8.4,53.36-12,.78-.15.45-1.36-.34-1.2-78,15.54-154.13,39.5-231.24,58.86-88,22.1-177.95,39.68-269,40.51-42,.38-83.25-2.5-123.13-16.43-35.71-12.46-68.64-31.54-99.62-53-62.29-43.23-117.88-95.31-182.76-134.94-129.06-78.82-292.17-129.28-443.86-101.85-41.15,7.44-80.79,16.25-122.92,15.9-40.39-.34-80.35-7.16-119.2-17.9-84.31-23.31-166.58-58.16-235.71-112.4C840.35,955.17,788.2,893.33,747.27,824.47,701.85,748,666.46,666.1,631.41,584.56q-13.7-31.84-27.39-63.71c-.32-.74-1.4-.1-1.08.63Z"/><path class="cls-3" d="M603.11,517.81c63.54,151,138.73,303.88,262.77,414.62a716.63,716.63,0,0,0,97.23,73.14c37.9,23.69,78.23,41.81,118.87,60.17,69.15,31.23,140.49,63.31,217.87,62.94,39-.18,76.5-10.83,115.25-13.42,39.45-2.63,79.18-.09,118.2,6,80.59,12.64,158.94,39.89,231.65,76.58a802.64,802.64,0,0,1,100.1,59.74c30.18,21.22,59,44.24,89,65.76,56.64,40.69,119.71,76.24,191.52,75.16,46.23-.7,93-7,138.83-12.56,45.54-5.48,91-12,136.31-18.82,85.21-12.88,170.24-27.59,255.93-37q27.42-3,54.94-5c.79-.06.8-1.31,0-1.25-79.11,5.68-157.59,18.31-235.9,30.47-91.31,14.18-182.67,28.42-274.68,37.26-42.29,4.07-85.16,9.63-127.15.45-35.22-7.7-68-23.52-98.53-42.39-62-38.31-116.11-87.69-178.81-125-66.88-39.76-139.56-70.7-214.87-90.35-71.87-18.76-148-27.75-221.83-16.5-20.51,3.12-40.61,7.56-61.38,8.92a305.62,305.62,0,0,1-56-1.47c-38.12-4.54-74.84-16.38-110.37-30.57-41.25-16.47-82-35-122.14-54a668.9,668.9,0,0,1-108.58-65,723,723,0,0,1-168.25-173.6c-47.36-68.75-85.88-143.28-120.26-219.23q-14.71-32.5-28.5-65.42c-.3-.73-1.51-.41-1.2.33Z"/><path class="cls-3" d="M603.34,514.29c60.37,147.33,148.08,285,272.29,386.36a935.23,935.23,0,0,0,101.16,71.86c37.11,22.85,76.26,41.35,114.68,61.77,63.85,33.93,127.47,78,200.89,87.23,37.92,4.76,74-3.84,111.72-5.85,39.2-2.08,78.59,1.16,117.24,7.71,79.85,13.51,157.42,40.81,230.18,76.05a920.56,920.56,0,0,1,98.26,55.06c31.13,20.11,61.31,41.67,92.9,61.07,29.84,18.34,61.13,34.84,94.74,45.12,36.5,11.16,72.36,12,110.1,8.37,175.63-17.06,351.52-45.89,528.31-47q28.11-.18,56.21,1c.81,0,.8-1.22,0-1.25-79.68-3.38-159.54,2.07-238.86,9.3-89.7,8.17-179.11,19.12-268.65,28.78q-34.32,3.7-68.68,7.12c-20.63,2-41.12,4.29-61.88,3-37.62-2.41-73.71-14.46-107.28-31.15-64.83-32.24-121.1-79-184.22-114.26-67.79-37.85-140.31-68.14-215.39-88.08-70.06-18.61-144.35-28.84-216.62-18.86-39,5.39-76.07,6-114.31-4.8-35.09-9.94-67.72-26.88-99.6-44.29-37.28-20.35-74.52-40.45-112.4-59.67a934.81,934.81,0,0,1-109.64-65.45c-66.1-45.82-126-99.87-176.23-162.75s-92-132.14-126.46-204.76Q617.31,545.3,604.55,514c-.3-.73-1.51-.41-1.21.33Z"/><path class="cls-3" d="M603.58,510.77c57,143.24,154.66,264.58,278,356.24,34.94,26,71.34,49.93,108.61,72.4,37.69,22.73,76.8,42.78,115,64.58,61.26,34.94,120.06,76.9,187.82,98.62,35.21,11.29,71.43,15.31,107.89,20.3,38,5.2,75.85,11,113.54,18,76.71,14.19,153.23,32.82,225.62,62.32,70.44,28.71,131.92,73.47,200.1,106.53,31.43,15.24,64.57,27.48,99.27,32.53,39.86,5.81,79.11-.83,118.75-5.34,170.49-19.36,344.58-37.71,516.18-22.77q29,2.53,57.88,6.71c.79.12,1.13-1.08.33-1.2-162.28-23.7-329.51-9.47-491.78,7.08-45.5,4.64-90.9,10.1-136.35,15.18-37.52,4.2-74.93-.18-110.82-11.73-70.54-22.68-130.9-67.56-195.93-101.69-132.3-69.44-285.41-92.5-431.85-111.5-37.54-4.87-73.81-14.19-108.58-29.27-31.75-13.77-61.59-31.49-91.22-49.25-72.41-43.41-148-81.39-218.8-127.44-66.76-43.41-130-92.42-184.27-150.89A805.45,805.45,0,0,1,630.77,569q-14.19-28.74-26-58.57c-.29-.74-1.5-.42-1.2.33Z"/><path class="cls-3" d="M603.81,507.25C631,577.67,671.91,641.76,722.7,697.51,772.34,752,830.44,797.28,891.88,837.68c36.51,24,74,46.54,111.64,68.63,38.31,22.45,77.69,43.43,114.87,67.73,59.12,38.64,111.2,89.7,175.79,119.5,31.94,14.74,65.62,21.77,99.94,28.46,37.24,7.26,74.53,14.29,111.7,21.93,76.72,15.78,153.58,33.74,226.84,61.88,70.25,27,134,68.62,205.12,93.49,34.63,12.11,70.89,19.58,107.69,19,20.54-.31,40.77-3.73,61.09-6.4q33.46-4.38,67-8.07c167.33-18.29,340.29-26,506.76,3.92q26.37,4.76,52.42,11c.78.19,1.11-1,.33-1.2-156.23-37.6-321.21-35.45-480.39-22.54q-65.1,5.28-129.91,13.53c-41.7,5.26-82,11.74-124,5.16-74.6-11.69-140.42-51.45-207.42-83.74-68.3-32.93-141-54.5-214.67-71.82-73.21-17.21-147.56-28.69-220.9-45.14-69.88-15.68-124.22-57.66-180.17-99.83-67.66-51-142.49-90-214.86-133.73-68-41.08-135-84.77-193.5-138.86-55-50.85-102.38-110-136.78-176.71a581.21,581.21,0,0,1-25.52-57c-.29-.74-1.5-.42-1.21.33Z"/><path class="cls-3" d="M604.05,503.73c25.71,68.62,68.1,129.08,120.85,179.65,52.18,50,113.05,88.91,175.51,124.75,73.6,42.23,151.45,79.58,220.93,128.55,57.6,40.59,101.77,96.72,159.07,137.38,57.9,41.1,130.27,52.8,198.13,68.34,76.92,17.6,154.36,34.2,229.37,59s146.11,60.55,223.82,77.3c82.88,17.86,167.21,6.48,250.93,1.77,165.1-9.3,336.6-18.12,498.68,21.41q26.22,6.4,51.88,14.79c.77.25,1.1-1,.34-1.2-151.19-49.39-315.72-47-472.79-40.19-43.5,1.87-87,4.38-130.42,7-42.86,2.59-86.14,7.34-129.09,4.81-80.14-4.71-155-33.73-228.84-63.07-72.5-28.82-147.17-49-223.08-66.71-37.68-8.78-75.46-17.11-113.1-26.06-35.06-8.35-71.49-15.76-104.77-29.91-63-26.79-107.41-79.35-157.36-124C1113.25,923,1040.5,884.91,969.56,845.5c-67.91-37.73-136.94-74.93-198-123.28-57-45.09-107-99.61-141.49-163.89a450.47,450.47,0,0,1-24.77-54.93c-.28-.74-1.49-.42-1.2.33Z"/><path class="cls-3" d="M604.28,500.21c24.68,68.08,69.51,125.71,125,171.63,55,45.5,118.5,77.84,182.27,109,74.27,36.34,152,71.15,218.23,121.27,56.73,42.9,94.36,102.72,144.63,151.92,23,22.48,49.17,41.26,78.89,53.79,33.81,14.26,69.83,24,105.22,33.44,77.93,20.76,157.09,36.66,234.63,58.91,76.93,22.07,151.58,50.43,231.69,59.27,43.65,4.82,86.49,2.47,130.11-1,43.82-3.44,87.69-6.36,131.61-8.37,164.74-7.55,336.08-5.37,494.58,45.37q26.64,8.54,52.54,19.07c.75.31,1.07-.9.33-1.2-147.64-60-311.66-69.86-469.29-67-43.11.77-86.19,2.66-129.22,5.27-43.38,2.62-86.71,7.41-130.11,9.33-84.23,3.72-165.59-15.94-245.3-41.17-76.28-24.14-153.29-43.34-231-62.07-38-9.17-76.08-18.6-113.58-29.86-34.6-10.38-69.47-21.5-99.82-41.6-56-37.08-91.83-96.08-138.08-143.4-55.63-56.93-127.41-94.58-197.88-129.9-67-33.6-136.56-63.64-199.34-105-60.69-40-115.2-91.13-150.83-155.1a362.91,362.91,0,0,1-24-53c-.28-.75-1.48-.42-1.21.33Z"/><path class="cls-3" d="M604.51,496.7c23.33,66.62,69.63,120.77,126.35,161.77,57.89,41.85,124.07,68.11,189.78,94.87,77.39,31.51,158.59,64.27,223.43,118.37,53.76,44.84,85.58,106.43,127.73,161,19.39,25.09,41.78,48,68.83,64.8,29.84,18.58,64.26,30.55,97.57,41.26,77.35,24.85,157.35,40.16,236.34,58.69,80.71,18.94,160.28,38.65,243.71,39.85,44.54.64,88.44-5,132.71-8.87,44.12-3.9,88.34-6.68,132.61-8.07,166-5.2,337.87,7.42,494.12,67.73q28.64,11.06,56.3,24.36c.72.35,1.35-.73.63-1.08-145.22-69.7-309.24-91.39-468.84-93.14-86.46-.94-172.93,4.19-258.9,13.21-87.48,9.18-173.07,1.8-258.74-17.54-39.28-8.86-78.28-19-117.57-27.79s-78.6-17.51-117.61-27.45c-37.92-9.65-75.69-20.36-112.27-34.33-34.48-13.17-66.77-29.16-94-54.55-48.33-45.09-76.94-106.61-119.44-156.64-50.94-60-121.34-98-192.21-129.71C863.13,724.34,708.77,682.9,630.36,549.75a301.3,301.3,0,0,1-24.64-53.39c-.26-.75-1.47-.43-1.21.34Z"/><path class="cls-3" d="M604.75,493.18c22.37,66.33,71.27,117.58,129.94,154,61.45,38.17,130.56,58.22,198.72,80.63,77.45,25.45,158.08,54.67,220.28,109.29,54.18,47.58,82.08,113.44,118.53,173.9,16.71,27.71,36,54.19,60.75,75.26,26.14,22.2,57.71,37.3,89.43,49.79,75.28,29.63,155.81,44.49,235.16,58.56,86.43,15.32,172.35,23.9,260.17,17.19,45.31-3.46,90.23-10.64,135.5-14.61q64.55-5.65,129.4-6.49c169.87-1.92,344.18,21.9,499.65,93.32q26.55,12.2,52.16,26.28c.71.39,1.34-.69.64-1.08-143-78.37-306.74-111.54-468.5-118.48-86.78-3.72-173.84.1-260.12,9.91-44.76,5.09-89.14,11.06-134.24,12.25a896.3,896.3,0,0,1-134.84-6.78c-41.87-5.23-83.49-13.15-124.93-21-39.79-7.55-79.47-16-118.51-26.81-71.08-19.74-144.35-46.53-191.82-105.88-42.74-53.43-66-119.38-107.84-173.54-46.58-60.35-114.35-97.53-184.13-125.11-133.72-52.87-299.08-76.21-380.57-209.9A253.76,253.76,0,0,1,606,492.84c-.25-.75-1.46-.43-1.2.34Z"/><path class="cls-3" d="M605,489.66c21.48,66.25,73.19,114.46,133.49,146.44,64.9,34.41,136.51,48.39,207.06,66.28C1024,722.26,1105.93,748,1166.2,804.71,1219.78,855.09,1244,924.88,1275,989.6c14.25,29.78,30.52,59,52.52,83.81,23.75,26.81,53.78,46.39,86,61.61,70.24,33.18,148.85,47.46,225.53,56.12,92.59,10.47,184.45,5.41,276.5-7.83,45.58-6.56,90.93-13.57,136.87-17.31q65.87-5.36,132.05-4.47c171.35,2.43,345,37.2,497.7,116.83q26.88,14,52.74,29.87a.63.63,0,0,0,.63-1.08c-141.74-86.64-306-130.9-470.8-143.3a1370.36,1370.36,0,0,0-258.07,5.38c-46.21,5.27-92,13.61-138.21,19s-92.82,8.56-139.41,7.83c-83.67-1.31-170-12.93-250.1-37.45-37-11.33-73.5-26.17-105.93-47.57-30.74-20.29-54.89-47.43-73.92-78.82-35.84-59.11-54.77-127-94.26-184.13-43.37-62.72-110-100.12-180.91-124.29-72.37-24.69-148.77-35.3-220.79-60.88C735.89,639,668.85,601,629.62,539.42a217.55,217.55,0,0,1-23.43-50.1c-.25-.76-1.46-.43-1.21.34Z"/><path class="cls-3" d="M605.22,486.14c20.41,65.73,74.39,110.58,135.33,138.25,68.39,31.06,142.28,39.27,215.4,52.5,79.82,14.45,163.87,36.18,223,95.39,53.35,53.44,74.22,127.74,100.57,196.3,12.38,32.21,26.3,64.2,46,92.68,20,28.94,46.09,52.4,76.24,70.46,67.71,40.54,149.89,56.08,228,56.24,97.91.2,194.72-19.38,290.63-36.79a1198,1198,0,0,1,263.8-18.37c173.69,7.25,347.14,52.69,498,140.12q27.12,15.72,53.14,33.21c.67.45,1.29-.63.63-1.08-139.79-93.67-303.09-148.55-469.86-167.22a1188.83,1188.83,0,0,0-260.74-.29c-94.25,10.26-186.47,33.73-280.83,43.65-87,9.15-175.35,8.08-258.75-21.21-38.1-13.38-74.88-32.57-104.91-59.87-26.66-24.23-46.14-54.92-61.42-87.3-30.7-65.07-46.24-137.13-85.31-198.23-40.91-64-106.4-100.69-178.06-121-74.58-21.17-152.68-25.27-227.28-46-68.17-18.94-139.11-52.21-179.44-113a189.64,189.64,0,0,1-23-48.75c-.24-.77-1.44-.44-1.2.33Z"/><path class="cls-3" d="M605.45,482.62c19.62,66.07,76.94,107.58,138.91,131.12,72.29,27.46,148.58,29.85,224.5,38.45,81,9.17,167.58,27,225,89.82,52.32,57.27,69.71,136.16,92.1,208.12,21.66,69.59,50.42,138.91,112.4,182,65,45.17,148.88,56.32,226.18,49.42,98.37-8.79,191.88-43.18,288.47-61.55a1049.08,1049.08,0,0,1,266.58-15.68c177.51,12,352.24,68,502.6,163.32q27.38,17.36,53.6,36.43c.66.47,1.28-.61.63-1.08-141.11-102.3-307.51-167.89-480-192a1068.72,1068.72,0,0,0-256.94-4.91c-93.17,9.58-181.88,36.64-272.87,57.2-87.26,19.72-179.61,29.68-265.7-.9-38.71-13.75-74.46-35.84-101.79-66.75-26-29.42-43.49-65.09-57.07-101.65-25.3-68.08-37.93-141.52-73.6-205.47-17.67-31.69-41.36-59.43-71.32-80.11-31.27-21.59-67.4-34.91-104.17-43.63C975.33,646.36,894.83,648.86,816.85,633c-69.47-14.1-145.36-42.36-187.42-102.91a166.64,166.64,0,0,1-22.77-47.83.63.63,0,0,0-1.21.33Z"/><path class="cls-3" d="M2720.16,1306.78c-134.84-94.4-288.77-161.73-450.26-194.2a1080.38,1080.38,0,0,0-239.74-21.31c-86,2.16-169.05,18.42-253,35.82-87.35,18.09-177.3,33.12-266,15-38.73-7.92-76.62-22.07-109.24-44.69-34.46-23.9-60.37-57-79.61-94-37.16-71.39-51.65-152.51-91.8-222.51-18.69-32.59-43.13-61.33-74-83-31.71-22.29-68.22-36.62-105.5-46.52C972.89,630.59,891,629.64,813,608.2c-64.41-17.71-131.84-49-169.26-107a175.45,175.45,0,0,1-20.44-44.65.62.62,0,0,0-1.2.33c18.66,61.91,69.35,104,126.61,129.82,69.76,31.48,145,38,219.75,49.53,81.09,12.47,166.4,32.57,224.44,95,57.13,61.45,75.93,146.32,105.73,222.29,14,35.69,30.74,70.77,55,100.72s55.41,52.6,90.46,68.12c73.76,32.67,157.15,34,235.84,23.41,90.29-12.11,178.06-38.13,268.76-47.85,82-8.77,165-7.19,246.68,3.57,167.43,22.07,329.48,82.33,472.37,172q26.33,16.51,51.76,34.38c.66.46,1.29-.62.63-1.08Z"/><path class="cls-3" d="M2703.88,1310.61c-135.3-91.37-285.77-161.88-444.74-200.34-76.9-18.61-155.75-29.63-234.89-31.19-83.47-1.64-164.88,10.41-247,23.53-86,13.72-174.14,24.82-260.42,6.9-37.72-7.83-74.68-21.07-107.07-42.21-34.18-22.3-60.81-53.31-81.31-88.37-39.57-67.69-58.07-145.56-99.56-212.27-19.65-31.6-44.53-59.44-75.08-80.84-30.92-21.66-66.06-36.44-102.06-47.32-75-22.68-154.13-28-228.73-52.12C760.49,566.2,696.69,532.93,660.55,475.9A185.39,185.39,0,0,1,640,430.74c-.23-.77-1.44-.44-1.2.33,18.66,61,67.07,104.09,122.78,131.89,65.11,32.49,136.36,42.94,207,56.94,80.27,15.91,163.56,38.17,222.15,99.08,56.2,58.41,79,138.29,111.34,210.54,15.44,34.47,33.51,68.24,58.57,96.75,24.67,28.06,55.49,49.34,89.76,64,72.5,31.08,154.05,33.83,231.49,26.41,88.13-8.44,174.6-29.24,263.07-34.74,81.95-5.09,164.4.56,245.17,15,163.83,29.32,320.57,94,461.8,181.41q26,16.11,51.39,33.28c.67.45,1.29-.63.63-1.08Z"/><path class="cls-3" d="M2687.6,1314.44c-136.35-88.7-284-162.36-440.86-206.91-75-21.32-152.16-35.83-230-41.06-82.33-5.53-163.22,2.86-245,11.82-83.12,9.1-168,15.88-250.52-1.56-37.17-7.86-73.73-20.57-106-40.81-33.41-20.92-60.29-49.86-81.71-82.74-41.06-63-63.49-136.14-105.17-198.82-20.08-30.2-44.58-57.11-74.09-78.33-29.82-21.45-63.43-37-98-49.06-72.64-25.35-149.8-35-221.92-61.89-60.9-22.68-121.81-57.85-156.91-114.41A197.83,197.83,0,0,1,656.63,405c-.24-.77-1.45-.44-1.21.33,18.69,60.15,64.88,104.23,118.94,134,63.29,34.86,133.76,48.82,203.15,66.19,76.78,19.23,155.11,44.51,212,102.43,54.71,55.75,81,130.58,116,198.78,16.7,32.61,35.87,64.3,61.17,91,24.74,26.13,54.86,46,88,59.9,71.7,30.11,151.9,34.14,228.58,29.78,85.06-4.83,169.24-20.34,254.53-21.72,80.8-1.31,161.56,8.15,240.38,25.72,161.74,36,315.15,105.19,456.34,191q26.54,16.14,52.56,33.11c.68.44,1.31-.64.64-1.08Z"/><path class="cls-3" d="M2671.31,1318.27C2533.67,1232.12,2388.69,1155,2234.08,1104c-73.51-24.24-149.21-42.35-226.16-51.25-79.39-9.19-158.23-5-237.75-.22-81.44,4.94-164.22,8.47-244.59-8.59-36.14-7.67-71.78-19.6-103.74-38.39-33.28-19.56-60.92-46.74-83.59-77.82-43-59-69.26-128.22-111.84-187.5-21-29.21-45.8-55.29-75-76.33-29.49-21.22-62.35-37.26-96.16-50.36-124.15-48.09-286.35-63.5-361.8-189.3a210.45,210.45,0,0,1-20.13-45.07c-.25-.77-1.45-.44-1.21.33,18.57,58.86,62.1,103.64,113.89,135.32,59.76,36.55,127.1,54.44,193.53,74.61,74.35,22.57,149.79,49.62,206.44,105.09,54.83,53.68,84.73,125,122.94,190.16,17.81,30.36,37.87,59.71,63.19,84.35,25,24.34,54.54,42.93,86.81,56.1,70.39,28.73,148.6,33.89,223.8,32.52,83.27-1.52,166.3-12,249.65-9.3,79.45,2.59,158.27,16,234.91,36.83,159.56,43.33,309.6,117.39,451,202q26.39,15.8,52.44,32.14c.69.42,1.31-.66.63-1.08Z"/><path class="cls-3" d="M2655,1322.09c-138.94-83.53-281.08-164.19-433-221.89-72.37-27.49-147.05-49.52-223.5-62.23-75.55-12.57-151.45-12.84-227.81-11.93-79.78,1-160.65,1.91-239.14-14.47-36.24-7.56-72-18.94-104.52-37-31.27-17.34-58.33-41.11-81.27-68.42-46.23-55-76.38-121.25-120-178.19-21.43-28-46-53.3-74.48-74.23-29.84-21.95-62.85-39.15-96.83-53.73-120.64-51.78-273.44-78.63-345-202.2a226.23,226.23,0,0,1-19.56-44.44c-.24-.76-1.45-.44-1.2.33,18.61,58.13,60.1,103.78,110,137.44,56.55,38.12,121,59.72,184.65,82.73,72.81,26.32,146.07,56,202.54,110.8,53.15,51.56,85.87,118.37,126.74,179.13,18.84,28,39.79,54.84,65.11,77.31,25.52,22.64,54.89,39.93,86.65,52.26,70.14,27.23,147.2,32.87,221.74,34.06,80.16,1.28,160.56-4,240.58,2.74,78.58,6.6,155.92,24.23,230.83,48.58,156.26,50.8,302.18,129.46,443.31,212.55q26.82,15.78,53.47,31.83a.63.63,0,0,0,.63-1.08Z"/><path class="cls-3" d="M2638.75,1325.92c-139.36-80.36-277.67-164.15-425.38-228.61-68.22-29.77-138.57-55.26-211.11-72.3-72.93-17.14-146.91-22.83-221.59-25.67-77.94-3-156.65-3.91-233.56-18.25-35.64-6.65-71-16.28-103.95-31.7-32.3-15.13-61.28-36.27-86.41-61.53-49.4-49.65-83.42-111.69-126.81-166.2-22.27-28-47.11-53.78-75.52-75.58-29.13-22.36-61.14-40.6-94.12-56.6-118.18-57.37-264.5-93.94-334-216.82a245.07,245.07,0,0,1-19.68-45c-.25-.77-1.45-.44-1.2.33,42.21,129.86,175.31,185,290.5,234,69.31,29.49,138.16,62.11,192.71,115.36,51.48,50.26,86.7,113.38,130.76,169.64,20.36,26,42.89,50.43,69.15,70.6,27.5,21.13,58.44,36.69,91.26,47.7,70.24,23.57,145.54,28.82,219,32.17,79.09,3.61,158.68,3.57,237.08,15.8,74.29,11.59,146.73,33.24,216.75,60.36,151.37,58.62,292.09,141.39,432.16,222.55q26.64,15.45,53.31,30.84a.63.63,0,0,0,.63-1.08Z"/><path class="cls-3" d="M2622.46,1329.75c-136.4-75.31-267.76-159.83-406.93-230.12-64.49-32.57-130.82-62-199.69-84-67.9-21.75-137.49-34-208.34-41C1730,967,1651.78,964.2,1574.69,952.36c-72.32-11.12-142.61-32-200.35-78.63-54.44-44-93.26-102.71-137.65-156-24-28.87-50-56.12-79.52-79.5-28.19-22.34-58.84-41.32-90.4-58.49-116-63.11-256.37-109.68-323.94-232.66a267.94,267.94,0,0,1-19.57-45.23c-.25-.76-1.46-.43-1.21.33,42.49,128.75,169.27,191.46,282.45,247.12,68,33.43,134.93,69.37,189.28,123.1,51.25,50.66,89.7,112.22,139.15,164.44,22.85,24.13,48.19,45.93,76.65,63.22,29.82,18.11,62.47,30.61,96.14,39.53,72.73,19.25,148.68,23.68,223.37,29.56,75.25,5.92,150.77,12.13,224.29,30.07,72.38,17.67,142.13,44.76,209.56,76.21,140.85,65.69,272.29,149.52,407.13,226.34q25.79,14.7,51.76,29c.71.39,1.34-.69.63-1.08Z"/><path class="cls-3" d="M2606.18,1333.58c-132.47-69.88-256.5-154.1-386.07-229-60.06-34.7-121.47-67.37-185.53-94.11a929.87,929.87,0,0,0-201.66-58.21c-74.16-12.74-149.19-18.56-223.75-28.31-73.79-9.64-148.2-24.25-212.21-64.2-59.8-37.31-104.48-91.73-150.67-143.87-24.94-28.15-50.81-55.55-79.62-79.8-27.4-23.06-57.08-43.28-87.61-62C964.3,503.93,827.57,447.74,760.28,323.23a298,298,0,0,1-20.36-47.15c-.26-.75-1.47-.43-1.21.34,43.55,130,166.89,200.43,279.34,263.72,66.61,37.49,131.21,77.3,185.52,131.73,50.09,50.2,91.9,108.42,146,154.57,53.49,45.59,116,72.31,184.4,86.51,74.8,15.52,151.47,20.35,227.14,30,73.24,9.36,145.84,22.63,215.77,46.82,67,23.17,131,54.15,193.17,88.11,131.46,71.85,255.2,156.83,386,229.89q24.58,13.73,49.48,26.87c.71.37,1.34-.7.63-1.08Z"/><path class="cls-3" d="M2589.9,1337.41c-128.85-64.81-246.39-148.63-366.93-227.2-112.29-73.19-228.7-141.61-359.31-176-71.39-18.81-144.55-29-217.64-38.47-75.1-9.75-152.31-19.08-221.69-51.38-64.71-30.13-116.23-78.22-165.41-128.89-26.17-27-52.23-54.11-80.44-79s-58.29-47.07-89.34-68c-113.3-76.46-244.82-143.11-311.43-269a337,337,0,0,1-21.14-49.14c-.26-.76-1.46-.43-1.2.33C799.83,381.33,918.28,460.35,1029.27,531c66.27,42.18,129.85,86.2,185.9,141.62,50,49.5,96.28,103.41,155.26,142.8,60.11,40.13,128.25,59.31,198.94,70.76,76,12.32,152.81,19.18,228.45,34.19,69,13.7,136.15,33.92,200.3,63,62.11,28.11,121.17,62.51,178.79,98.81,121.52,76.54,237.6,161.77,363.75,230.83q24.08,13.18,48.61,25.52c.71.36,1.35-.72.63-1.08Z"/><path class="cls-3" d="M2573.61,1341.24c-125.08-59.84-236.51-142.9-348.19-224.13-104.73-76.17-211.88-152.75-334.34-197.83-69.51-25.59-142-41.07-215.14-52.19-73.43-11.18-148.75-17.23-219.63-40.72-69.93-23.17-129.54-63.86-183.72-113-27.74-25.18-54.44-51.48-82.36-76.46-28.31-25.33-58.07-48.87-88.65-71.38C988.19,482,860.74,404,794.44,274.45a384.45,384.45,0,0,1-21.21-49.92c-.26-.75-1.47-.43-1.21.34,46,133.26,161,221.8,271.63,300.52,31.88,22.68,63.84,45.3,94.61,69.49s59.79,50.38,88.3,77.19c51.47,48.42,102.84,96.87,166.38,129.23,65.72,33.47,137.68,46.47,210,56.7,75.89,10.73,151.66,21.28,225.55,42.28,65.55,18.63,128.06,45.27,187.41,78.67,57.17,32.18,111.42,69.28,164.76,107.41,113.05,80.8,223.06,166.88,346,232.55q22.89,12.22,46.29,23.41c.73.34,1.36-.74.63-1.08Z"/><path class="cls-3" d="M2557.33,1345.06c-122.48-55.58-229-138.64-333.23-222.43-97.51-78.42-195.11-160.44-308.52-215.23-63.59-30.73-131.18-52.11-200.36-66-75.74-15.2-153.29-20-228.59-37.48a511.36,511.36,0,0,1-196.05-92.27c-31.52-24.06-61-50.66-90.82-76.72-30.19-26.36-61.11-51.77-92.63-76.53C994.79,470.19,875.48,380.35,810.9,249a454,454,0,0,1-21-50.23c-.27-.75-1.48-.43-1.21.33,47.23,134.64,155.8,233.32,265.06,319.17,31.29,24.58,62.9,48.76,93.72,73.94,31.37,25.62,61.47,52.71,92.12,79.18,53.86,46.49,110.68,87.63,177.73,112.93,72.22,27.26,149.06,35,224.91,46,74,10.73,147,26.67,216.83,53.83,122.53,47.67,226.58,128.79,328.15,210.39,103.22,82.93,206.22,168.08,324.2,229.57q22.35,11.64,45.3,22c.73.33,1.36-.74.63-1.08Z"/><path class="cls-3" d="M2541.05,1348.89c-120.22-51.6-222.36-134.78-319.58-220.72-92-81.32-181.53-168.16-287.24-231.84a725.12,725.12,0,0,0-193.39-81.26c-75.87-19.54-154-24.6-231-37.59-72.67-12.25-143.16-34.75-205.77-74.31-66.9-42.27-125.89-97.1-186.68-147.46-112.93-93.56-224.85-195.33-289-330A557.81,557.81,0,0,1,806.54,173c-.26-.75-1.47-.42-1.2.34,48.92,137.39,151.15,247.14,260.06,340.42,30.63,26.22,61.89,51.69,92.88,77.48,30.35,25.26,60.27,51.07,91.56,75.18,57.28,44.15,119.32,77.73,189.26,97,75.59,20.77,154.13,25.13,231.17,38.13,73.77,12.44,145.56,34.33,212.53,67.91,114.28,57.29,209.22,144.9,303.76,229.38,95.9,85.7,194,171.84,309.46,230.45q21.86,11.1,44.4,20.75c.73.32,1.37-.76.63-1.08Z"/><path class="cls-3" d="M2524.62,1352.66c-119.37-48.3-218.14-132.91-309.59-221.57-87.61-84.95-170.51-176.63-270-248.12-55.73-40-116.76-72.43-182.14-93.55-72.87-23.53-148.65-30.21-224.28-39.06-76.89-9-153.86-23.49-223.29-59.22s-130.16-87.92-189.17-138.6C1011.33,454,907.9,339.36,844.79,200.34q-11.87-26.13-21.59-53.13c-.27-.75-1.48-.43-1.2.33,50.75,140.38,144.92,261.65,253.83,362,29.79,27.46,60.62,53.76,91.84,79.57,29.15,24.1,58.76,47.77,90.1,69,30.43,20.62,62.54,38.59,96.73,52.17,35.32,14,72.23,23.53,109.56,30.45,77.81,14.42,157.43,16.41,234.9,33a637,637,0,0,1,202.33,81.55c107.34,66.41,194.46,159.92,283.57,248,89.63,88.6,183.85,176.36,298.15,232.22q20.29,9.91,41.27,18.37c.75.31,1.07-.9.34-1.2Z"/><path class="cls-3" d="M2508.33,1356.49c-118-44.84-213.08-130.21-298.52-220.7-83.65-88.59-160.21-184.91-253.48-263.91-51.3-43.46-108-80.72-170.51-106-72.7-29.41-149.45-38.38-227-44.85-78.52-6.55-158.36-13.56-232.08-43.47-71.94-29.2-134.84-77.7-192.8-128.51a1051.22,1051.22,0,0,1-271.6-371.33q-12.08-27.81-22.49-56.3c-.28-.75-1.48-.42-1.21.34,52.77,143.74,137,276.46,246.44,383.73,54.82,53.75,115,105,181.57,143.7,65.68,38.22,137.55,56.48,212.52,65.51,81.3,9.79,164,10.34,243.56,31.45,70.92,18.81,136.48,52.87,195.13,96.65,100.37,74.92,180.12,173.44,264.33,265.13,83.09,90.48,173,179.39,285.42,232.59q19.85,9.39,40.38,17.16c.75.29,1.08-.92.33-1.2Z"/><path class="cls-3" d="M2492.05,1360.32c-116.44-41.4-207.8-127.31-287.35-219.07-80.27-92.6-151.07-193.78-238.64-279.91-48.32-47.52-102.1-90.11-163.35-119.75-69.86-33.8-144.87-45.84-221.7-50.41-81.13-4.82-164-4.55-242.38-28.55-73.91-22.62-139.53-66.44-197.21-117-121-106.14-202.85-246.84-263.26-394.44q-11.28-27.57-21.64-55.49c-.28-.75-1.49-.43-1.21.33,55.24,148.18,128.52,293.63,240.07,407.69,52.74,53.92,113.22,102.77,181.36,135.82,70.24,34.08,146.41,44.27,223.55,48.76,82.87,4.82,166.82,5.18,246.4,31.82,69.9,23.4,132.26,63.82,187,112.67,92.54,82.53,165.11,184.22,244.24,279,76.91,92.08,162.61,182.44,273.28,233.38q19.85,9.14,40.48,16.43c.76.27,1.08-.94.33-1.2Z"/><path class="cls-3" d="M2475.77,1364.14c-114-37.68-201.4-123-275-214.69-76.36-95.21-140.93-199.52-221-291.85-37.74-43.55-79.16-84.41-126.58-117.39-49.93-34.73-106.09-59.39-166-70.49-91.32-16.92-184.71-5.87-276.74-14.44-44-4.09-87.06-13.31-128-30-36.87-15-71.51-35.18-103.41-58.92C1036.13,460,959.62,294.08,897,132.32c-8-20.77-15.93-41.6-23.82-62.44-.28-.74-1.49-.42-1.2.34,61.68,163,126.72,333.09,256.42,455.18,56.33,53,123.61,95.57,198.54,116.41,89.56,24.9,183.41,16,275.14,20.13,44.85,2,89.7,7.34,132.67,20.78a416.64,416.64,0,0,1,81.39,35.53c50.73,28.8,95.24,67.32,135.17,109.61,84.51,89.48,150.13,194.53,224.73,292,70.82,92.49,152.46,183.07,261.13,230.86q18.78,8.25,38.27,14.67c.77.25,1.1-.95.34-1.21Z"/><path class="cls-3" d="M911.19,74.66c49.48,132.05,99.92,267.49,187,380.2,40.63,52.62,88.91,100,144.89,136.13,60.34,39,127.26,60.51,198.5,67.94,75,7.82,150.75,3.67,225.57,13.4a456.55,456.55,0,0,1,197.32,74.45c116.51,78.41,198.22,197.15,284.59,305.31,79.17,99.14,166.63,198.76,283.58,253.69q20.55,9.65,42,17.25c.76.27,1.08-.94.33-1.2-122.86-43.9-216.45-138.39-297.71-237-87.47-106.12-165.28-223.69-273.43-310.58-49.72-40-105.92-71.7-167.44-89.26-71.83-20.51-147.1-19.82-221.1-22.58-75-2.8-149.43-10.66-218.21-42.88-61.86-29-116.13-72.51-162-122.77C1038.37,391.06,981.71,257,931.42,124.84q-9.58-25.22-19-50.51c-.28-.75-1.49-.43-1.21.33Z"/><path class="cls-3" d="M950.41,79.1c47.64,128.52,96.07,260.07,178.37,371.18,37.64,50.81,82.14,97.08,133.8,133.77,55.67,39.53,118.14,64.27,185.54,74.72,70.41,10.92,142,9.52,212.66,17.51,69.78,7.89,136,28.29,196.66,63.94,116.74,68.61,201.89,177.8,289.5,278.39,82.46,94.69,171.47,188.88,286,244.48q20,9.67,40.67,17.62c.75.29,1.08-.92.34-1.2-119.37-46-213.8-135.46-297.63-229.39-87.81-98.38-168.65-207-277-284.18-51.54-36.71-109.15-64.88-170.88-79.5-69.55-16.47-141.5-16.23-212.4-21.51-70.67-5.27-139.79-17.51-203-51.09-58.46-31.08-109.27-75.35-152.27-125.41-90.13-104.9-143.63-234.74-191.74-362.81q-8.77-23.4-17.44-46.85c-.28-.75-1.49-.42-1.21.33Z"/><path class="cls-3" d="M989.64,83.54c45.21,123.37,91,249.26,166.79,357.76,35.21,50.4,76.77,96.83,125.25,134.82,50.72,39.75,108.3,67.6,171.32,81.29,66.45,14.44,134.71,15.85,202.11,23,68.36,7.24,134,23.46,195.45,54.78C1967.27,794.61,2056,893.68,2145.41,986.8c85.71,89.31,176.18,177.51,288,233.59q19.38,9.72,39.41,18c.74.31,1.06-.9.33-1.2-115.89-48.12-211.16-132.47-297.8-221.3-88.9-91.16-173.45-190.74-282.75-258.46-53-32.86-111.21-56.85-172.52-68.85-66.68-13.06-134.94-13.92-202.28-21.92-67.87-8.06-133-25.08-191.69-61.11-53.39-32.78-99.52-76.63-138.78-125.22-83.39-103.23-133.83-228-179.58-351.28q-8.49-22.89-16.87-45.84c-.27-.75-1.48-.42-1.2.33Z"/><path class="cls-3" d="M1028.86,88c43.31,119.59,87.05,241.3,158,347.85,65.89,99,156.67,186.43,273.39,219.64,61.85,17.59,126.3,22.07,189.93,29,66.6,7.24,131.29,19.9,193,46.79,115.5,50.35,207.59,137.69,298.46,222.57,88.88,83,180.39,165.11,288.79,222.09q20.36,10.69,41.37,20.09c.73.33,1.37-.75.63-1.08-111.85-50.08-207.2-128.54-296.59-211.05-90.48-83.52-178.4-173.31-287.88-232.21a564.54,564.54,0,0,0-171.53-59.52c-64.86-11.2-130.89-13.47-195.78-24.55-62.69-10.7-122-31.09-174.81-67.06-50.57-34.43-94-78.92-130.93-127.47C1137.65,371.6,1090,251.59,1046.49,132.82q-8.27-22.56-16.42-45.16c-.28-.75-1.48-.43-1.21.33Z"/><path class="cls-3" d="M1068.08,92.43c41.28,115.46,82.88,232.66,148.67,336.91,60.78,96.33,144.4,185.49,254,224.23,58.13,20.53,119.65,28,180.53,35.4,63.32,7.73,125.5,17.9,185.53,40.2,114.25,42.43,210.06,118.08,303,194.84,91.94,75.89,184.94,151.45,290,208.67q20.22,11,41,21c.72.35,1.35-.73.63-1.08-108.56-52.45-205-125.95-297.7-202.23-91.39-75.19-182.26-153.32-290.65-203.29a644.1,644.1,0,0,0-170-51c-62.11-9.8-125-13.87-186.47-27.84-58.89-13.39-113.55-37-161.79-73.57-47-35.68-87.23-80.15-121.56-128-71.89-100.2-117-216.43-158.67-331.63q-7.76-21.45-15.4-42.92c-.27-.75-1.48-.43-1.21.33Z"/><path class="cls-3" d="M1107.31,96.87c39.42,111.76,79.06,224.92,140.23,327,56.51,94.35,133.82,184.87,237.24,228.45,54.27,22.87,112.58,33.09,170.58,41.26,60.76,8.55,121,17.21,179.62,36,109.91,35.23,207,97.21,300.38,163.71C2231.73,962,2327.23,1032,2430.58,1090q19.53,11,39.39,21.33c.72.38,1.35-.7.63-1.08-104.59-54.57-201.44-122.33-297-191.11-91.65-65.94-184.4-131.45-290-173.44-55-21.88-112-36.28-170.49-45.19-59.07-9-118.7-15-176.36-31.41-56.51-16.1-107.8-42.94-152.64-81-43.32-36.76-80.25-80.95-112-127.93-66.48-98.41-109.12-210.52-148.77-321.76q-7.45-21-14.84-41.93c-.26-.75-1.47-.43-1.2.33Z"/><path class="cls-3" d="M1146.53,101.32c37.69,108.38,75.53,217.92,132.46,318,52.5,92.3,123.57,183.61,220.54,231.77,49.62,24.64,103.82,37.61,158.21,46.62,58.42,9.68,116.93,17.07,174.21,32.62,107.65,29.22,207.26,79.12,302.6,136.2,99.11,59.34,195.94,122.37,295.87,180.37q19.26,11.17,38.67,22.13c.7.39,1.33-.69.63-1.08-101-57-198.68-119.29-297.41-180-92.65-56.92-187.8-109.86-291.4-144.21C1826.06,725.63,1770,713.75,1713,705c-56.19-8.58-112.63-16.63-166.49-35.56-53.15-18.68-100.35-48.19-141.31-86.81-39.82-37.55-73.76-81.33-103.11-127.43C1240.13,358,1199.61,249,1161.61,140.75q-7-19.86-13.88-39.76c-.26-.76-1.47-.44-1.2.33Z"/><path class="cls-3" d="M1185.75,105.76c36.5,106.57,73.1,214.12,127.16,313.35,25.26,46.36,54.42,90.77,88.33,131.29,33.26,39.74,71.53,75.6,116.8,101.29,97.91,55.56,213,57,320.19,82.26,104.93,24.69,205.93,62.88,302.67,110.2,99.43,48.63,195.9,103.58,290.79,160.48q18.3,11,36.51,22.11a.63.63,0,0,0,.63-1.08c-94.23-57.54-190.09-112.72-288.37-163.08-94.45-48.39-192.14-89.48-294.58-117.74-54.24-15-109.18-25.28-164.71-34.07-54.25-8.59-108.53-18.21-159.55-39.28-49.87-20.59-93.4-51.63-130.95-90.23-37.19-38.22-68.83-81.87-96.38-127.43-58.34-96.48-97.24-203.16-133.9-309.3q-6.75-19.55-13.43-39.1c-.26-.76-1.47-.43-1.21.33Z"/><path class="cls-3" d="M1225,110.2c35.3,104.76,70.68,210.29,121.73,308.65,24.22,46.67,52,91.65,84.4,133.1,31.07,39.77,66.65,76.22,109.58,103.2,92.19,57.94,203.42,62.39,307.47,83,103.23,20.48,205.62,46.88,303.95,84.67a1665.67,1665.67,0,0,1,281.78,140.08q16.88,10.5,33.44,21.48c.67.44,1.3-.64.63-1.08-86-57-178.28-105-273.43-144.79-96.12-40.18-196-69-297.63-91.42-53.73-11.85-107.8-21-162.09-29.75-53.51-8.66-106.8-19.55-156.11-42.86-94.57-44.69-160.31-131.39-211.17-220.12-55-96-92.59-200.81-128.08-305.28q-6.66-19.6-13.26-39.25c-.26-.76-1.46-.43-1.21.33Z"/><path class="cls-3" d="M1264.2,114.65c34.16,103.18,68.37,207,116.52,304.67,23,46.72,49.25,92,79.71,134.31,28.71,39.84,61.51,77,102,105.28s86.34,45.86,134.2,56.61c53.42,12,108.2,18.21,162.27,26.65,102.67,16,206.46,29.75,306.6,58.29,94.71,27,186.93,66.67,269.7,120.27q15.89,10.31,31.26,21.37c.66.47,1.28-.61.63-1.08-78.42-56.43-167.46-98.55-259-128.8-97.79-32.29-199.46-47.7-300.87-63.71-53.2-8.41-106.55-16-159.72-24.64-51.67-8.39-102.92-20.17-149.53-44.77-90.33-47.68-150.43-137.11-197.75-224.8-51.65-95.72-87.73-198.83-122.06-301.73q-6.37-19.12-12.7-38.26c-.25-.76-1.46-.43-1.2.34Z"/><path class="cls-3" d="M1303.42,119.09c33,101.66,66.07,203.82,111.24,300.89,21.74,46.73,46.3,92.24,74.49,135.41,26.29,40.27,56.53,78.56,94.8,108.13s82.62,48.21,129.5,59.14c50.82,11.85,103.36,17.3,155.17,22.88,103,11.1,207.56,11,309.55,30.28,90.79,17.2,180.48,50.35,257.36,102.12q15.33,10.34,29.89,21.74c.63.49,1.52-.39.88-.88-71.51-56.07-157.77-93.12-245.59-115-97.94-24.38-199-25.72-299-34.36-53.26-4.6-106.61-10.46-159.43-18.74-49.84-7.82-99.26-20-143.36-45.27-42.57-24.43-77.33-59.3-106.39-98.53-30.4-41-56.12-85.67-79.16-131.18-48.35-95.5-83.08-197.14-116.29-298.66q-6.27-19.15-12.48-38.32c-.25-.76-1.46-.44-1.21.33Z"/><path class="cls-3" d="M1342.64,123.53c32.18,101,64.33,202.43,106.87,299.69C1470,470,1492.76,516,1518.79,560c24,40.57,51.59,79.73,87.92,110.25,35.89,30.14,78.46,49.13,123.88,59.81,49.75,11.71,101.72,16.26,152.66,18.92,102,5.34,203.94-9.83,305.89.1,87.59,8.52,176.2,36,248.46,87.24q14,9.88,26.94,21c.6.52,1.49-.36.88-.88-65.62-56.21-150.1-88.78-234.59-103.13-98.44-16.73-197.58-4.84-296.62-4.32-51.8.27-104-4-155.21-11.27-48.81-7-97.34-19.23-139.65-45.38-40.64-25.13-72.69-61-99.07-100.43-28-41.92-51.55-87-73-132.61-45.37-96.33-79.09-197.59-111.52-298.85q-6-18.63-11.9-37.29c-.24-.76-1.45-.44-1.21.33Z"/><path class="cls-3" d="M1381.87,128c31.44,100.91,62.87,202.07,102.74,300,18.93,46.51,39.53,92.49,62.89,137,21.77,41.46,47,82,82.09,113.58,34.32,30.85,76.2,49.78,121,59.73,48.85,10.86,100,13.5,149.87,12.3,101.55-2.42,200.74-31,302.49-29.72,82.53,1,168.94,23.45,235.79,73.26a289.06,289.06,0,0,1,24.91,20.9c.59.56,1.47-.33.88-.88-59.85-56.22-142.16-84.45-222.77-92.37-97.59-9.59-193.42,15.68-290,24.6a747.77,747.77,0,0,1-153.27-1.49c-48.19-5.5-96.53-17.35-137.68-44-39.59-25.61-69.43-62.68-93.4-102.8-26-43.44-47.27-89.89-67.28-136.31-41.61-96.54-74-196.68-105.4-296.9q-5.84-18.64-11.64-37.28c-.24-.76-1.44-.44-1.2.34Z"/><path class="cls-3" d="M1421.09,132.42c30.81,101.24,61.62,202.59,98.6,301.79,17.82,47.82,36.63,95.46,58.07,141.78,19.14,41.36,42.09,82.13,75.8,113.45,33,30.65,74.3,48.7,118.19,57.26,49,9.55,100.27,9.41,149.77,3.57,98.37-11.6,191.2-52,290.28-59.19,79.29-5.76,166,11.26,229.19,61.8a231.22,231.22,0,0,1,21.78,19.85c.56.58,1.44-.31.88-.89-55.07-56.94-136.47-81-214-82.91-95-2.31-184.88,32.91-276.72,51.66-50.57,10.33-102.3,14.74-153.84,11-46.75-3.42-94.14-13.74-134.1-39.28-39.15-25-67.37-62.37-89.21-102.78-24.59-45.48-43.59-94.28-62.28-142.4-37.93-97.66-69.31-197.66-99.9-297.81q-5.69-18.59-11.34-37.19c-.23-.77-1.44-.44-1.2.33Z"/><path class="cls-3" d="M1460.31,136.86c30.27,102,60.55,204.07,94.24,305,16.38,49.08,32.65,98.49,52,146.49,16.63,41.22,37.56,82,70.33,112.86,68.81,64.69,174.38,66,261.46,46.71,95-21,181.44-71,277.78-87,76.36-12.67,164.28-2.09,225.24,49.26a187.9,187.9,0,0,1,20.5,20.19c.53.6,1.41-.28.88-.89-51.25-58.62-133.29-78.15-208.46-74-93,5.13-177.56,49.23-264.88,77.1-48.12,15.36-97.85,25.13-148.53,24.61-46.44-.47-94-9.32-133.86-34.27-38.65-24.2-65.25-61.73-84.85-102.18-22.48-46.38-38.22-96.27-54.85-144.95-34-99.62-64.53-200.39-94.53-301.29l-11.28-38a.63.63,0,0,0-1.21.33Z"/><path class="cls-3" d="M1499.54,141.31,1593,465.21q11.68,40.49,23.36,81c6.1,21.13,12.33,42.25,19.86,62.93,14.52,39.86,34.36,79.07,66.62,107.53,64.42,56.84,159.26,54.44,237.07,31.41,95-28.11,177.11-87.86,272.41-115.22,74.73-21.46,168.14-19.74,229.18,34.46a158.5,158.5,0,0,1,19.5,20.79c.5.63,1.38-.26.89-.89-49.1-62.48-135.48-76-209.89-64.39-45.25,7-88.23,24.29-129.6,43.39-46.25,21.35-91.12,45.72-138.38,64.87-77.81,31.52-174.3,48.71-251.26,5.32-39.12-22.06-65.68-58.65-83.8-99-19.48-43.4-31-90.16-44.14-135.73l-92.65-321.14L1500.74,141a.62.62,0,0,0-1.2.34Z"/></g></g></g></svg>
